<svg width="28" height="22" viewBox="0 0 28 22" fill="none" xmlns="http://www.w3.org/2000/svg">
<path d="M28 2.0625V19.9375C28 20.4875 27.79 20.9688 27.37 21.3813C26.95 21.7938 26.46 22 25.9 22H2.1C1.54 22 1.05 21.7938 0.63 21.3813C0.21 20.9688 0 20.4875 0 19.9375V2.0625C0 1.5125 0.21 1.03125 0.63 0.61875C1.05 0.20625 1.54 0 2.1 0H25.9C26.46 0 26.95 0.20625 27.37 0.61875C27.79 1.03125 28 1.5125 28 2.0625ZM2.1 5.80937H25.9V2.0625H2.1V5.80937ZM2.1 10.2438V19.9375H25.9V10.2438H2.1Z" fill="#333333"/>
</svg>
