<svg width="23" height="29" viewBox="0 0 23 29" fill="none" xmlns="http://www.w3.org/2000/svg">
<path d="M0 6.17554L3.43573 12.3167V16.0626L0.00401923 22.1917L0 6.17554Z" fill="#5B57A2"/>
<path d="M13.1917 10.0819L16.4111 8.10869L22.9998 8.10254L13.1917 14.111V10.0819Z" fill="#D90751"/>
<path d="M13.1737 6.13925L13.1919 14.2699L9.74812 12.1539V0L13.1737 6.13925Z" fill="#FAB718"/>
<path d="M23 8.10252L16.4111 8.10867L13.1737 6.13925L9.74812 0L23 8.10252Z" fill="#ED6F26"/>
<path d="M13.1919 22.2256V18.2809L9.74812 16.2051L9.75001 28.371L13.1919 22.2256Z" fill="#63B22F"/>
<path d="M16.4032 20.2705L3.43549 12.3167L0 6.17554L22.986 20.2625L16.4032 20.2705Z" fill="#1487C9"/>
<path d="M9.75002 28.3711L13.1914 22.2257L16.4028 20.2705L22.9856 20.2625L9.75002 28.3711Z" fill="#017F36"/>
<path d="M0.00414276 22.1915L9.7763 16.2052L6.49094 14.1895L3.43585 16.0624L0.00414276 22.1915Z" fill="#984995"/>
</svg>
